<svg width="50" height="50" viewBox="0 0 50 50" fill="none" xmlns="http://www.w3.org/2000/svg">
<path d="M37.5 16.6667C37.5 13.3515 36.183 10.172 33.8388 7.82784C31.4946 5.48363 28.3152 4.16667 25 4.16667C21.6848 4.16667 18.5054 5.48363 16.1612 7.82784C13.817 10.172 12.5 13.3515 12.5 16.6667C12.5 31.25 6.25 35.4167 6.25 35.4167H43.75C43.75 35.4167 37.5 31.25 37.5 16.6667Z" stroke="black" stroke-width="2" stroke-linecap="round" stroke-linejoin="round"/>
<path d="M28.6041 43.75C28.2379 44.3814 27.7122 44.9055 27.0796 45.2699C26.4471 45.6342 25.7299 45.826 25 45.826C24.27 45.826 23.5529 45.6342 22.9203 45.2699C22.2878 44.9055 21.7621 44.3814 21.3958 43.75" stroke="black" stroke-width="2" stroke-linecap="round" stroke-linejoin="round"/>
</svg>
