<svg width="50" height="50" viewBox="0 0 50 50" fill="none" xmlns="http://www.w3.org/2000/svg">
<path d="M29.1666 4.16669H12.5C11.3949 4.16669 10.3351 4.60567 9.5537 5.38708C8.7723 6.16848 8.33331 7.22829 8.33331 8.33335V41.6667C8.33331 42.7718 8.7723 43.8316 9.5537 44.613C10.3351 45.3944 11.3949 45.8334 12.5 45.8334H37.5C38.605 45.8334 39.6649 45.3944 40.4463 44.613C41.2277 43.8316 41.6666 42.7718 41.6666 41.6667V16.6667L29.1666 4.16669Z" stroke="black" stroke-width="2" stroke-linecap="round" stroke-linejoin="round"/>
<path d="M29.1667 4.16669V16.6667H41.6667" stroke="black" stroke-width="2" stroke-linecap="round" stroke-linejoin="round"/>
<path d="M33.3334 27.0833H16.6667" stroke="black" stroke-width="2" stroke-linecap="round" stroke-linejoin="round"/>
<path d="M33.3334 35.4167H16.6667" stroke="black" stroke-width="2" stroke-linecap="round" stroke-linejoin="round"/>
<path d="M20.8334 18.75H18.75H16.6667" stroke="black" stroke-width="2" stroke-linecap="round" stroke-linejoin="round"/>
</svg>
