<svg width="10" height="10" viewBox="0 0 10 10" fill="none" xmlns="http://www.w3.org/2000/svg">
<g clip-path="url(#clip0_1220_29)">
<path d="M7.08337 0.833374H2.91671C1.76611 0.833374 0.833374 1.76611 0.833374 2.91671V7.08337C0.833374 8.23397 1.76611 9.16671 2.91671 9.16671H7.08337C8.23397 9.16671 9.16671 8.23397 9.16671 7.08337V2.91671C9.16671 1.76611 8.23397 0.833374 7.08337 0.833374Z" stroke="black" stroke-width="0.8" stroke-linecap="round" stroke-linejoin="round"/>
<path d="M6.66669 4.7375C6.71811 5.08427 6.65888 5.43843 6.49742 5.74959C6.33596 6.06076 6.0805 6.31309 5.76736 6.4707C5.45423 6.62831 5.09937 6.68317 4.75326 6.62748C4.40716 6.57178 4.08742 6.40837 3.83954 6.16049C3.59165 5.9126 3.42824 5.59287 3.37255 5.24676C3.31685 4.90065 3.37171 4.54579 3.52932 4.23266C3.68693 3.91953 3.93926 3.66406 4.25043 3.5026C4.5616 3.34115 4.91575 3.28192 5.26252 3.33334C5.61624 3.38579 5.94371 3.55061 6.19656 3.80346C6.44941 4.05632 6.61424 4.38379 6.66669 4.7375Z" stroke="black" stroke-width="0.8" stroke-linecap="round" stroke-linejoin="round"/>
<path d="M7.29169 2.70837H7.29585" stroke="black" stroke-width="0.8" stroke-linecap="round" stroke-linejoin="round"/>
</g>
<defs>
<clipPath id="clip0_1220_29">
<rect width="10" height="10" fill="white"/>
</clipPath>
</defs>
</svg>
