<svg width="10" height="10" viewBox="0 0 10 10" fill="none" xmlns="http://www.w3.org/2000/svg">
<g clip-path="url(#clip0_1220_27)">
<path d="M9.58329 1.25004C9.18429 1.53149 8.7425 1.74675 8.27496 1.88754C8.02402 1.599 7.69052 1.39449 7.31956 1.30168C6.9486 1.20886 6.55808 1.2322 6.20083 1.36856C5.84357 1.50492 5.53681 1.74771 5.32204 2.06409C5.10726 2.38047 4.99483 2.75518 4.99996 3.13754V3.55421C4.26772 3.57319 3.54216 3.41079 2.88788 3.08148C2.2336 2.75216 1.67092 2.26614 1.24996 1.66671C1.24996 1.66671 -0.416707 5.41671 3.33329 7.08337C2.47518 7.66586 1.45294 7.95793 0.416626 7.91671C4.16663 10 8.74996 7.91671 8.74996 3.12504C8.74958 3.00898 8.73842 2.8932 8.71663 2.77921C9.14188 2.35983 9.44197 1.83034 9.58329 1.25004Z" stroke="black" stroke-width="0.8" stroke-linecap="round" stroke-linejoin="round"/>
</g>
<defs>
<clipPath id="clip0_1220_27">
<rect width="10" height="10" fill="white"/>
</clipPath>
</defs>
</svg>
