<svg width="15" height="13" viewBox="0 0 15 13" fill="none" xmlns="http://www.w3.org/2000/svg">
<path d="M14.375 0.874937C13.7765 1.29711 13.1138 1.62001 12.4125 1.83119C12.0361 1.39838 11.5358 1.09162 10.9794 0.952391C10.423 0.813162 9.83719 0.848184 9.3013 1.05272C8.76542 1.25726 8.30528 1.62144 7.98311 2.09601C7.66095 2.57058 7.49231 3.13265 7.5 3.70619V4.33119C6.40165 4.35967 5.3133 4.11607 4.33188 3.62209C3.35046 3.12811 2.50645 2.39908 1.875 1.49994C1.875 1.49994 -0.625 7.12494 5 9.62494C3.71283 10.4987 2.17947 10.9368 0.625 10.8749C6.25 13.9999 13.125 10.8749 13.125 3.68744C13.1244 3.51335 13.1077 3.33968 13.075 3.16869C13.7129 2.53962 14.163 1.74538 14.375 0.874937Z" stroke="#C82424" stroke-width="0.8" stroke-linecap="round" stroke-linejoin="round"/>
</svg>
